<svg xmlns="http://www.w3.org/2000/svg" width="1968" height="1967" viewBox="0 0 1968 1967">
<rect width="100%" height="100%" fill="white"/>
<line x1="1967" y1="1007" x2="1967" y2="1032" stroke="blue" stroke-width="0.5"/>
<line x1="1967" y1="1032" x2="1961" y2="1032" stroke="blue" stroke-width="0.5"/>
<line x1="1961" y1="1032" x2="1961" y2="1056" stroke="blue" stroke-width="0.5"/>
<line x1="1961" y1="1056" x2="1961" y2="1056" stroke="blue" stroke-width="0.5"/>
<line x1="1961" y1="1056" x2="1961" y2="1080" stroke="blue" stroke-width="0.5"/>
<line x1="1961" y1="1080" x2="1953" y2="1080" stroke="blue" stroke-width="0.5"/>
<line x1="1953" y1="1080" x2="1953" y2="1104" stroke="blue" stroke-width="0.5"/>
<line x1="1953" y1="1104" x2="1954" y2="1104" stroke="blue" stroke-width="0.5"/>
<line x1="1954" y1="1104" x2="1954" y2="1127" stroke="blue" stroke-width="0.5"/>
<line x1="1954" y1="1127" x2="1943" y2="1127" stroke="blue" stroke-width="0.5"/>
<line x1="1943" y1="1127" x2="1943" y2="1154" stroke="blue" stroke-width="0.5"/>
<line x1="1943" y1="1154" x2="1958" y2="1154" stroke="blue" stroke-width="0.5"/>
<line x1="1958" y1="1154" x2="1958" y2="1178" stroke="blue" stroke-width="0.5"/>
<line x1="1958" y1="1178" x2="1950" y2="1178" stroke="blue" stroke-width="0.5"/>
<line x1="1950" y1="1178" x2="1950" y2="1202" stroke="blue" stroke-width="0.5"/>
<line x1="1950" y1="1202" x2="1949" y2="1202" stroke="blue" stroke-width="0.5"/>
<line x1="1949" y1="1202" x2="1949" y2="1224" stroke="blue" stroke-width="0.5"/>
<line x1="1949" y1="1224" x2="1933" y2="1224" stroke="blue" stroke-width="0.5"/>
<line x1="1933" y1="1224" x2="1933" y2="1246" stroke="blue" stroke-width="0.5"/>
<line x1="1933" y1="1246" x2="1922" y2="1246" stroke="blue" stroke-width="0.5"/>
<line x1="1922" y1="1246" x2="1922" y2="1269" stroke="blue" stroke-width="0.5"/>
<line x1="1922" y1="1269" x2="1914" y2="1269" stroke="blue" stroke-width="0.5"/>
<line x1="1914" y1="1269" x2="1914" y2="1296" stroke="blue" stroke-width="0.5"/>
<line x1="1914" y1="1296" x2="1920" y2="1296" stroke="blue" stroke-width="0.5"/>
<line x1="1920" y1="1296" x2="1920" y2="1317" stroke="blue" stroke-width="0.5"/>
<line x1="1920" y1="1317" x2="1904" y2="1317" stroke="blue" stroke-width="0.5"/>
<line x1="1904" y1="1317" x2="1904" y2="1339" stroke="blue" stroke-width="0.5"/>
<line x1="1904" y1="1339" x2="1894" y2="1339" stroke="blue" stroke-width="0.5"/>
<line x1="1894" y1="1339" x2="1894" y2="1364" stroke="blue" stroke-width="0.5"/>
<line x1="1894" y1="1364" x2="1891" y2="1364" stroke="blue" stroke-width="0.5"/>
<line x1="1891" y1="1364" x2="1891" y2="1384" stroke="blue" stroke-width="0.5"/>
<line x1="1891" y1="1384" x2="1877" y2="1384" stroke="blue" stroke-width="0.5"/>
<line x1="1877" y1="1384" x2="1877" y2="1409" stroke="blue" stroke-width="0.5"/>
<line x1="1877" y1="1409" x2="1872" y2="1409" stroke="blue" stroke-width="0.5"/>
<line x1="1872" y1="1409" x2="1872" y2="1431" stroke="blue" stroke-width="0.5"/>
<line x1="1872" y1="1431" x2="1862" y2="1431" stroke="blue" stroke-width="0.5"/>
<line x1="1862" y1="1431" x2="1862" y2="1449" stroke="blue" stroke-width="0.5"/>
<line x1="1862" y1="1449" x2="1845" y2="1449" stroke="blue" stroke-width="0.5"/>
<line x1="1845" y1="1449" x2="1845" y2="1477" stroke="blue" stroke-width="0.5"/>
<line x1="1845" y1="1477" x2="1845" y2="1477" stroke="blue" stroke-width="0.5"/>
<line x1="1845" y1="1477" x2="1845" y2="1489" stroke="blue" stroke-width="0.5"/>
<line x1="1845" y1="1489" x2="1817" y2="1489" stroke="blue" stroke-width="0.5"/>
<line x1="1817" y1="1489" x2="1817" y2="1517" stroke="blue" stroke-width="0.5"/>
<line x1="1817" y1="1517" x2="1816" y2="1517" stroke="blue" stroke-width="0.5"/>
<line x1="1816" y1="1517" x2="1816" y2="1533" stroke="blue" stroke-width="0.5"/>
<line x1="1816" y1="1533" x2="1796" y2="1533" stroke="blue" stroke-width="0.5"/>
<line x1="1796" y1="1533" x2="1796" y2="1559" stroke="blue" stroke-width="0.5"/>
<line x1="1796" y1="1559" x2="1791" y2="1559" stroke="blue" stroke-width="0.5"/>
<line x1="1791" y1="1559" x2="1791" y2="1570" stroke="blue" stroke-width="0.5"/>
<line x1="1791" y1="1570" x2="1765" y2="1570" stroke="blue" stroke-width="0.5"/>
<line x1="1765" y1="1570" x2="1765" y2="1597" stroke="blue" stroke-width="0.5"/>
<line x1="1765" y1="1597" x2="1760" y2="1597" stroke="blue" stroke-width="0.5"/>
<line x1="1760" y1="1597" x2="1760" y2="1609" stroke="blue" stroke-width="0.5"/>
<line x1="1760" y1="1609" x2="1735" y2="1609" stroke="blue" stroke-width="0.5"/>
<line x1="1735" y1="1609" x2="1735" y2="1636" stroke="blue" stroke-width="0.5"/>
<line x1="1735" y1="1636" x2="1730" y2="1636" stroke="blue" stroke-width="0.5"/>
<line x1="1730" y1="1636" x2="1730" y2="1647" stroke="blue" stroke-width="0.5"/>
<line x1="1730" y1="1647" x2="1706" y2="1647" stroke="blue" stroke-width="0.5"/>
<line x1="1706" y1="1647" x2="1706" y2="1663" stroke="blue" stroke-width="0.5"/>
<line x1="1706" y1="1663" x2="1687" y2="1663" stroke="blue" stroke-width="0.5"/>
<line x1="1687" y1="1663" x2="1687" y2="1685" stroke="blue" stroke-width="0.5"/>
<line x1="1687" y1="1685" x2="1675" y2="1685" stroke="blue" stroke-width="0.5"/>
<line x1="1675" y1="1685" x2="1675" y2="1697" stroke="blue" stroke-width="0.5"/>
<line x1="1675" y1="1697" x2="1653" y2="1697" stroke="blue" stroke-width="0.5"/>
<line x1="1653" y1="1697" x2="1653" y2="1724" stroke="blue" stroke-width="0.5"/>
<line x1="1653" y1="1724" x2="1645" y2="1724" stroke="blue" stroke-width="0.5"/>
<line x1="1645" y1="1724" x2="1645" y2="1729" stroke="blue" stroke-width="0.5"/>
<line x1="1645" y1="1729" x2="1617" y2="1729" stroke="blue" stroke-width="0.5"/>
<line x1="1617" y1="1729" x2="1617" y2="1750" stroke="blue" stroke-width="0.5"/>
<line x1="1617" y1="1750" x2="1603" y2="1750" stroke="blue" stroke-width="0.5"/>
<line x1="1603" y1="1750" x2="1603" y2="1758" stroke="blue" stroke-width="0.5"/>
<line x1="1603" y1="1758" x2="1578" y2="1758" stroke="blue" stroke-width="0.5"/>
<line x1="1578" y1="1758" x2="1578" y2="1779" stroke="blue" stroke-width="0.5"/>
<line x1="1578" y1="1779" x2="1563" y2="1779" stroke="blue" stroke-width="0.5"/>
<line x1="1563" y1="1779" x2="1563" y2="1798" stroke="blue" stroke-width="0.5"/>
<line x1="1563" y1="1798" x2="1547" y2="1798" stroke="blue" stroke-width="0.5"/>
<line x1="1547" y1="1798" x2="1547" y2="1801" stroke="blue" stroke-width="0.5"/>
<line x1="1547" y1="1801" x2="1520" y2="1801" stroke="blue" stroke-width="0.5"/>
<line x1="1520" y1="1801" x2="1520" y2="1814" stroke="blue" stroke-width="0.5"/>
<line x1="1520" y1="1814" x2="1499" y2="1814" stroke="blue" stroke-width="0.5"/>
<line x1="1499" y1="1814" x2="1499" y2="1834" stroke="blue" stroke-width="0.5"/>
<line x1="1499" y1="1834" x2="1483" y2="1834" stroke="blue" stroke-width="0.5"/>
<line x1="1483" y1="1834" x2="1483" y2="1845" stroke="blue" stroke-width="0.5"/>
<line x1="1483" y1="1845" x2="1462" y2="1845" stroke="blue" stroke-width="0.5"/>
<line x1="1462" y1="1845" x2="1462" y2="1853" stroke="blue" stroke-width="0.5"/>
<line x1="1462" y1="1853" x2="1438" y2="1853" stroke="blue" stroke-width="0.5"/>
<line x1="1438" y1="1853" x2="1438" y2="1857" stroke="blue" stroke-width="0.5"/>
<line x1="1438" y1="1857" x2="1413" y2="1857" stroke="blue" stroke-width="0.5"/>
<line x1="1413" y1="1857" x2="1413" y2="1885" stroke="blue" stroke-width="0.5"/>
<line x1="1413" y1="1885" x2="1399" y2="1885" stroke="blue" stroke-width="0.5"/>
<line x1="1399" y1="1885" x2="1399" y2="1884" stroke="blue" stroke-width="0.5"/>
<line x1="1399" y1="1884" x2="1372" y2="1884" stroke="blue" stroke-width="0.5"/>
<line x1="1372" y1="1884" x2="1372" y2="1887" stroke="blue" stroke-width="0.5"/>
<line x1="1372" y1="1887" x2="1347" y2="1887" stroke="blue" stroke-width="0.5"/>
<line x1="1347" y1="1887" x2="1347" y2="1912" stroke="blue" stroke-width="0.5"/>
<line x1="1347" y1="1912" x2="1331" y2="1912" stroke="blue" stroke-width="0.5"/>
<line x1="1331" y1="1912" x2="1331" y2="1908" stroke="blue" stroke-width="0.5"/>
<line x1="1331" y1="1908" x2="1303" y2="1908" stroke="blue" stroke-width="0.5"/>
<line x1="1303" y1="1908" x2="1303" y2="1912" stroke="blue" stroke-width="0.5"/>
<line x1="1303" y1="1912" x2="1279" y2="1912" stroke="blue" stroke-width="0.5"/>
<line x1="1279" y1="1912" x2="1279" y2="1925" stroke="blue" stroke-width="0.5"/>
<line x1="1279" y1="1925" x2="1258" y2="1925" stroke="blue" stroke-width="0.5"/>
<line x1="1258" y1="1925" x2="1258" y2="1940" stroke="blue" stroke-width="0.5"/>
<line x1="1258" y1="1940" x2="1237" y2="1940" stroke="blue" stroke-width="0.5"/>
<line x1="1237" y1="1940" x2="1237" y2="1931" stroke="blue" stroke-width="0.5"/>
<line x1="1237" y1="1931" x2="1210" y2="1931" stroke="blue" stroke-width="0.5"/>
<line x1="1210" y1="1931" x2="1210" y2="1943" stroke="blue" stroke-width="0.5"/>
<line x1="1210" y1="1943" x2="1187" y2="1943" stroke="blue" stroke-width="0.5"/>
<line x1="1187" y1="1943" x2="1187" y2="1939" stroke="blue" stroke-width="0.5"/>
<line x1="1187" y1="1939" x2="1162" y2="1939" stroke="blue" stroke-width="0.5"/>
<line x1="1162" y1="1939" x2="1162" y2="1949" stroke="blue" stroke-width="0.5"/>
<line x1="1162" y1="1949" x2="1139" y2="1949" stroke="blue" stroke-width="0.5"/>
<line x1="1139" y1="1949" x2="1139" y2="1962" stroke="blue" stroke-width="0.5"/>
<line x1="1139" y1="1962" x2="1116" y2="1962" stroke="blue" stroke-width="0.5"/>
<line x1="1116" y1="1962" x2="1116" y2="1958" stroke="blue" stroke-width="0.5"/>
<line x1="1116" y1="1958" x2="1091" y2="1958" stroke="blue" stroke-width="0.5"/>
<line x1="1091" y1="1958" x2="1091" y2="1952" stroke="blue" stroke-width="0.5"/>
<line x1="1091" y1="1952" x2="1066" y2="1952" stroke="blue" stroke-width="0.5"/>
<line x1="1066" y1="1952" x2="1066" y2="1961" stroke="blue" stroke-width="0.5"/>
<line x1="1066" y1="1961" x2="1042" y2="1961" stroke="blue" stroke-width="0.5"/>
<line x1="1042" y1="1961" x2="1042" y2="1962" stroke="blue" stroke-width="0.5"/>
<line x1="1042" y1="1962" x2="1018" y2="1962" stroke="blue" stroke-width="0.5"/>
<line x1="1018" y1="1962" x2="1018" y2="1965" stroke="blue" stroke-width="0.5"/>
<line x1="1018" y1="1965" x2="994" y2="1965" stroke="blue" stroke-width="0.5"/>
<line x1="994" y1="1965" x2="994" y2="1958" stroke="blue" stroke-width="0.5"/>
<line x1="994" y1="1958" x2="969" y2="1958" stroke="blue" stroke-width="0.5"/>
<line x1="969" y1="1958" x2="969" y2="1963" stroke="blue" stroke-width="0.5"/>
<line x1="969" y1="1963" x2="945" y2="1963" stroke="blue" stroke-width="0.5"/>
<line x1="945" y1="1963" x2="945" y2="1966" stroke="blue" stroke-width="0.5"/>
<line x1="945" y1="1966" x2="920" y2="1966" stroke="blue" stroke-width="0.5"/>
<line x1="920" y1="1966" x2="920" y2="1964" stroke="blue" stroke-width="0.5"/>
<line x1="920" y1="1964" x2="896" y2="1964" stroke="blue" stroke-width="0.5"/>
<line x1="896" y1="1964" x2="896" y2="1957" stroke="blue" stroke-width="0.5"/>
<line x1="896" y1="1957" x2="872" y2="1957" stroke="blue" stroke-width="0.5"/>
<line x1="872" y1="1957" x2="872" y2="1947" stroke="blue" stroke-width="0.5"/>
<line x1="872" y1="1947" x2="849" y2="1947" stroke="blue" stroke-width="0.5"/>
<line x1="849" y1="1947" x2="849" y2="1944" stroke="blue" stroke-width="0.5"/>
<line x1="849" y1="1944" x2="824" y2="1944" stroke="blue" stroke-width="0.5"/>
<line x1="824" y1="1944" x2="824" y2="1944" stroke="blue" stroke-width="0.5"/>
<line x1="824" y1="1944" x2="800" y2="1944" stroke="blue" stroke-width="0.5"/>
<line x1="800" y1="1944" x2="800" y2="1929" stroke="blue" stroke-width="0.5"/>
<line x1="800" y1="1929" x2="778" y2="1929" stroke="blue" stroke-width="0.5"/>
<line x1="778" y1="1929" x2="778" y2="1924" stroke="blue" stroke-width="0.5"/>
<line x1="778" y1="1924" x2="754" y2="1924" stroke="blue" stroke-width="0.5"/>
<line x1="754" y1="1924" x2="754" y2="1929" stroke="blue" stroke-width="0.5"/>
<line x1="754" y1="1929" x2="728" y2="1929" stroke="blue" stroke-width="0.5"/>
<line x1="728" y1="1929" x2="728" y2="1917" stroke="blue" stroke-width="0.5"/>
<line x1="728" y1="1917" x2="706" y2="1917" stroke="blue" stroke-width="0.5"/>
<line x1="706" y1="1917" x2="706" y2="1904" stroke="blue" stroke-width="0.5"/>
<line x1="706" y1="1904" x2="684" y2="1904" stroke="blue" stroke-width="0.5"/>
<line x1="684" y1="1904" x2="684" y2="1898" stroke="blue" stroke-width="0.5"/>
<line x1="684" y1="1898" x2="661" y2="1898" stroke="blue" stroke-width="0.5"/>
<line x1="661" y1="1898" x2="661" y2="1882" stroke="blue" stroke-width="0.5"/>
<line x1="661" y1="1882" x2="641" y2="1882" stroke="blue" stroke-width="0.5"/>
<line x1="641" y1="1882" x2="641" y2="1874" stroke="blue" stroke-width="0.5"/>
<line x1="641" y1="1874" x2="618" y2="1874" stroke="blue" stroke-width="0.5"/>
<line x1="618" y1="1874" x2="618" y2="1874" stroke="blue" stroke-width="0.5"/>
<line x1="618" y1="1874" x2="592" y2="1874" stroke="blue" stroke-width="0.5"/>
<line x1="592" y1="1874" x2="592" y2="1867" stroke="blue" stroke-width="0.5"/>
<line x1="592" y1="1867" x2="568" y2="1867" stroke="blue" stroke-width="0.5"/>
<line x1="568" y1="1867" x2="568" y2="1850" stroke="blue" stroke-width="0.5"/>
<line x1="568" y1="1850" x2="549" y2="1850" stroke="blue" stroke-width="0.5"/>
<line x1="549" y1="1850" x2="549" y2="1836" stroke="blue" stroke-width="0.5"/>
<line x1="549" y1="1836" x2="529" y2="1836" stroke="blue" stroke-width="0.5"/>
<line x1="529" y1="1836" x2="529" y2="1823" stroke="blue" stroke-width="0.5"/>
<line x1="529" y1="1823" x2="508" y2="1823" stroke="blue" stroke-width="0.5"/>
<line x1="508" y1="1823" x2="508" y2="1818" stroke="blue" stroke-width="0.5"/>
<line x1="508" y1="1818" x2="483" y2="1818" stroke="blue" stroke-width="0.5"/>
<line x1="483" y1="1818" x2="483" y2="1795" stroke="blue" stroke-width="0.5"/>
<line x1="483" y1="1795" x2="468" y2="1795" stroke="blue" stroke-width="0.5"/>
<line x1="468" y1="1795" x2="468" y2="1778" stroke="blue" stroke-width="0.5"/>
<line x1="468" y1="1778" x2="451" y2="1778" stroke="blue" stroke-width="0.5"/>
<line x1="451" y1="1778" x2="451" y2="1765" stroke="blue" stroke-width="0.5"/>
<line x1="451" y1="1765" x2="430" y2="1765" stroke="blue" stroke-width="0.5"/>
<line x1="430" y1="1765" x2="430" y2="1763" stroke="blue" stroke-width="0.5"/>
<line x1="430" y1="1763" x2="401" y2="1763" stroke="blue" stroke-width="0.5"/>
<line x1="401" y1="1763" x2="401" y2="1736" stroke="blue" stroke-width="0.5"/>
<line x1="401" y1="1736" x2="392" y2="1736" stroke="blue" stroke-width="0.5"/>
<line x1="392" y1="1736" x2="392" y2="1723" stroke="blue" stroke-width="0.5"/>
<line x1="392" y1="1723" x2="372" y2="1723" stroke="blue" stroke-width="0.5"/>
<line x1="372" y1="1723" x2="372" y2="1708" stroke="blue" stroke-width="0.5"/>
<line x1="372" y1="1708" x2="352" y2="1708" stroke="blue" stroke-width="0.5"/>
<line x1="352" y1="1708" x2="352" y2="1690" stroke="blue" stroke-width="0.5"/>
<line x1="352" y1="1690" x2="336" y2="1690" stroke="blue" stroke-width="0.5"/>
<line x1="336" y1="1690" x2="336" y2="1678" stroke="blue" stroke-width="0.5"/>
<line x1="336" y1="1678" x2="313" y2="1678" stroke="blue" stroke-width="0.5"/>
<line x1="313" y1="1678" x2="313" y2="1663" stroke="blue" stroke-width="0.5"/>
<line x1="313" y1="1663" x2="293" y2="1663" stroke="blue" stroke-width="0.5"/>
<line x1="293" y1="1663" x2="293" y2="1637" stroke="blue" stroke-width="0.5"/>
<line x1="293" y1="1637" x2="286" y2="1637" stroke="blue" stroke-width="0.5"/>
<line x1="286" y1="1637" x2="286" y2="1620" stroke="blue" stroke-width="0.5"/>
<line x1="286" y1="1620" x2="268" y2="1620" stroke="blue" stroke-width="0.5"/>
<line x1="268" y1="1620" x2="268" y2="1606" stroke="blue" stroke-width="0.5"/>
<line x1="268" y1="1606" x2="246" y2="1606" stroke="blue" stroke-width="0.5"/>
<line x1="246" y1="1606" x2="246" y2="1587" stroke="blue" stroke-width="0.5"/>
<line x1="246" y1="1587" x2="231" y2="1587" stroke="blue" stroke-width="0.5"/>
<line x1="231" y1="1587" x2="231" y2="1568" stroke="blue" stroke-width="0.5"/>
<line x1="231" y1="1568" x2="216" y2="1568" stroke="blue" stroke-width="0.5"/>
<line x1="216" y1="1568" x2="216" y2="1549" stroke="blue" stroke-width="0.5"/>
<line x1="216" y1="1549" x2="201" y2="1549" stroke="blue" stroke-width="0.5"/>
<line x1="201" y1="1549" x2="201" y2="1524" stroke="blue" stroke-width="0.5"/>
<line x1="201" y1="1524" x2="194" y2="1524" stroke="blue" stroke-width="0.5"/>
<line x1="194" y1="1524" x2="194" y2="1507" stroke="blue" stroke-width="0.5"/>
<line x1="194" y1="1507" x2="176" y2="1507" stroke="blue" stroke-width="0.5"/>
<line x1="176" y1="1507" x2="176" y2="1480" stroke="blue" stroke-width="0.5"/>
<line x1="176" y1="1480" x2="172" y2="1480" stroke="blue" stroke-width="0.5"/>
<line x1="172" y1="1480" x2="172" y2="1462" stroke="blue" stroke-width="0.5"/>
<line x1="172" y1="1462" x2="155" y2="1462" stroke="blue" stroke-width="0.5"/>
<line x1="155" y1="1462" x2="155" y2="1440" stroke="blue" stroke-width="0.5"/>
<line x1="155" y1="1440" x2="144" y2="1440" stroke="blue" stroke-width="0.5"/>
<line x1="144" y1="1440" x2="144" y2="1420" stroke="blue" stroke-width="0.5"/>
<line x1="144" y1="1420" x2="129" y2="1420" stroke="blue" stroke-width="0.5"/>
<line x1="129" y1="1420" x2="129" y2="1398" stroke="blue" stroke-width="0.5"/>
<line x1="129" y1="1398" x2="119" y2="1398" stroke="blue" stroke-width="0.5"/>
<line x1="119" y1="1398" x2="119" y2="1370" stroke="blue" stroke-width="0.5"/>
<line x1="119" y1="1370" x2="123" y2="1370" stroke="blue" stroke-width="0.5"/>
<line x1="123" y1="1370" x2="123" y2="1349" stroke="blue" stroke-width="0.5"/>
<line x1="123" y1="1349" x2="110" y2="1349" stroke="blue" stroke-width="0.5"/>
<line x1="110" y1="1349" x2="110" y2="1330" stroke="blue" stroke-width="0.5"/>
<line x1="110" y1="1330" x2="92" y2="1330" stroke="blue" stroke-width="0.5"/>
<line x1="92" y1="1330" x2="92" y2="1302" stroke="blue" stroke-width="0.5"/>
<line x1="92" y1="1302" x2="99" y2="1302" stroke="blue" stroke-width="0.5"/>
<line x1="99" y1="1302" x2="99" y2="1284" stroke="blue" stroke-width="0.5"/>
<line x1="99" y1="1284" x2="75" y2="1284" stroke="blue" stroke-width="0.5"/>
<line x1="75" y1="1284" x2="75" y2="1257" stroke="blue" stroke-width="0.5"/>
<line x1="75" y1="1257" x2="78" y2="1257" stroke="blue" stroke-width="0.5"/>
<line x1="78" y1="1257" x2="78" y2="1235" stroke="blue" stroke-width="0.5"/>
<line x1="78" y1="1235" x2="66" y2="1235" stroke="blue" stroke-width="0.5"/>
<line x1="66" y1="1235" x2="66" y2="1210" stroke="blue" stroke-width="0.5"/>
<line x1="66" y1="1210" x2="67" y2="1210" stroke="blue" stroke-width="0.5"/>
<line x1="67" y1="1210" x2="67" y2="1187" stroke="blue" stroke-width="0.5"/>
<line x1="67" y1="1187" x2="59" y2="1187" stroke="blue" stroke-width="0.5"/>
<line x1="59" y1="1187" x2="59" y2="1165" stroke="blue" stroke-width="0.5"/>
<line x1="59" y1="1165" x2="45" y2="1165" stroke="blue" stroke-width="0.5"/>
<line x1="45" y1="1165" x2="45" y2="1140" stroke="blue" stroke-width="0.5"/>
<line x1="45" y1="1140" x2="43" y2="1140" stroke="blue" stroke-width="0.5"/>
<line x1="43" y1="1140" x2="43" y2="1115" stroke="blue" stroke-width="0.5"/>
<line x1="43" y1="1115" x2="48" y2="1115" stroke="blue" stroke-width="0.5"/>
<line x1="48" y1="1115" x2="48" y2="1091" stroke="blue" stroke-width="0.5"/>
<line x1="48" y1="1091" x2="39" y2="1091" stroke="blue" stroke-width="0.5"/>
<line x1="39" y1="1091" x2="39" y2="1067" stroke="blue" stroke-width="0.5"/>
<line x1="39" y1="1067" x2="43" y2="1067" stroke="blue" stroke-width="0.5"/>
<line x1="43" y1="1067" x2="43" y2="1042" stroke="blue" stroke-width="0.5"/>
<line x1="43" y1="1042" x2="46" y2="1042" stroke="blue" stroke-width="0.5"/>
<line x1="46" y1="1042" x2="46" y2="1018" stroke="blue" stroke-width="0.5"/>
<line x1="46" y1="1018" x2="35" y2="1018" stroke="blue" stroke-width="0.5"/>
<line x1="35" y1="1018" x2="35" y2="1007" stroke="blue" stroke-width="0.5"/>
<line x1="35" y1="1007" x2="1894" y2="1007" stroke="blue" stroke-width="0.5"/>
<line x1="1894" y1="1007" x2="1894" y2="970" stroke="blue" stroke-width="0.5"/>
<line x1="1894" y1="970" x2="47" y2="970" stroke="blue" stroke-width="0.5"/>
<line x1="47" y1="970" x2="47" y2="945" stroke="blue" stroke-width="0.5"/>
<line x1="47" y1="945" x2="35" y2="945" stroke="blue" stroke-width="0.5"/>
<line x1="35" y1="945" x2="35" y2="921" stroke="blue" stroke-width="0.5"/>
<line x1="35" y1="921" x2="51" y2="921" stroke="blue" stroke-width="0.5"/>
<line x1="51" y1="921" x2="51" y2="897" stroke="blue" stroke-width="0.5"/>
<line x1="51" y1="897" x2="48" y2="897" stroke="blue" stroke-width="0.5"/>
<line x1="48" y1="897" x2="48" y2="873" stroke="blue" stroke-width="0.5"/>
<line x1="48" y1="873" x2="54" y2="873" stroke="blue" stroke-width="0.5"/>
<line x1="54" y1="873" x2="54" y2="848" stroke="blue" stroke-width="0.5"/>
<line x1="54" y1="848" x2="49" y2="848" stroke="blue" stroke-width="0.5"/>
<line x1="49" y1="848" x2="49" y2="826" stroke="blue" stroke-width="0.5"/>
<line x1="49" y1="826" x2="66" y2="826" stroke="blue" stroke-width="0.5"/>
<line x1="66" y1="826" x2="66" y2="799" stroke="blue" stroke-width="0.5"/>
<line x1="66" y1="799" x2="53" y2="799" stroke="blue" stroke-width="0.5"/>
<line x1="53" y1="799" x2="53" y2="776" stroke="blue" stroke-width="0.5"/>
<line x1="53" y1="776" x2="64" y2="776" stroke="blue" stroke-width="0.5"/>
<line x1="64" y1="776" x2="64" y2="753" stroke="blue" stroke-width="0.5"/>
<line x1="64" y1="753" x2="74" y2="753" stroke="blue" stroke-width="0.5"/>
<line x1="74" y1="753" x2="74" y2="728" stroke="blue" stroke-width="0.5"/>
<line x1="74" y1="728" x2="74" y2="728" stroke="blue" stroke-width="0.5"/>
<line x1="74" y1="728" x2="74" y2="704" stroke="blue" stroke-width="0.5"/>
<line x1="74" y1="704" x2="77" y2="704" stroke="blue" stroke-width="0.5"/>
<line x1="77" y1="704" x2="77" y2="684" stroke="blue" stroke-width="0.5"/>
<line x1="77" y1="684" x2="96" y2="684" stroke="blue" stroke-width="0.5"/>
<line x1="96" y1="684" x2="96" y2="663" stroke="blue" stroke-width="0.5"/>
<line x1="96" y1="663" x2="109" y2="663" stroke="blue" stroke-width="0.5"/>
<line x1="109" y1="663" x2="109" y2="636" stroke="blue" stroke-width="0.5"/>
<line x1="109" y1="636" x2="106" y2="636" stroke="blue" stroke-width="0.5"/>
<line x1="106" y1="636" x2="106" y2="615" stroke="blue" stroke-width="0.5"/>
<line x1="106" y1="615" x2="120" y2="615" stroke="blue" stroke-width="0.5"/>
<line x1="120" y1="615" x2="120" y2="591" stroke="blue" stroke-width="0.5"/>
<line x1="120" y1="591" x2="125" y2="591" stroke="blue" stroke-width="0.5"/>
<line x1="125" y1="591" x2="125" y2="575" stroke="blue" stroke-width="0.5"/>
<line x1="125" y1="575" x2="148" y2="575" stroke="blue" stroke-width="0.5"/>
<line x1="148" y1="575" x2="148" y2="549" stroke="blue" stroke-width="0.5"/>
<line x1="148" y1="549" x2="151" y2="549" stroke="blue" stroke-width="0.5"/>
<line x1="151" y1="549" x2="151" y2="529" stroke="blue" stroke-width="0.5"/>
<line x1="151" y1="529" x2="165" y2="529" stroke="blue" stroke-width="0.5"/>
<line x1="165" y1="529" x2="165" y2="503" stroke="blue" stroke-width="0.5"/>
<line x1="165" y1="503" x2="170" y2="503" stroke="blue" stroke-width="0.5"/>
<line x1="170" y1="503" x2="170" y2="486" stroke="blue" stroke-width="0.5"/>
<line x1="170" y1="486" x2="187" y2="486" stroke="blue" stroke-width="0.5"/>
<line x1="187" y1="486" x2="187" y2="466" stroke="blue" stroke-width="0.5"/>
<line x1="187" y1="466" x2="202" y2="466" stroke="blue" stroke-width="0.5"/>
<line x1="202" y1="466" x2="202" y2="451" stroke="blue" stroke-width="0.5"/>
<line x1="202" y1="451" x2="223" y2="451" stroke="blue" stroke-width="0.5"/>
<line x1="223" y1="451" x2="223" y2="423" stroke="blue" stroke-width="0.5"/>
<line x1="223" y1="423" x2="226" y2="423" stroke="blue" stroke-width="0.5"/>
<line x1="226" y1="423" x2="226" y2="405" stroke="blue" stroke-width="0.5"/>
<line x1="226" y1="405" x2="242" y2="405" stroke="blue" stroke-width="0.5"/>
<line x1="242" y1="405" x2="242" y2="387" stroke="blue" stroke-width="0.5"/>
<line x1="242" y1="387" x2="259" y2="387" stroke="blue" stroke-width="0.5"/>
<line x1="259" y1="387" x2="259" y2="370" stroke="blue" stroke-width="0.5"/>
<line x1="259" y1="370" x2="276" y2="370" stroke="blue" stroke-width="0.5"/>
<line x1="276" y1="370" x2="276" y2="352" stroke="blue" stroke-width="0.5"/>
<line x1="276" y1="352" x2="293" y2="352" stroke="blue" stroke-width="0.5"/>
<line x1="293" y1="352" x2="293" y2="331" stroke="blue" stroke-width="0.5"/>
<line x1="293" y1="331" x2="306" y2="331" stroke="blue" stroke-width="0.5"/>
<line x1="306" y1="331" x2="306" y2="319" stroke="blue" stroke-width="0.5"/>
<line x1="306" y1="319" x2="329" y2="319" stroke="blue" stroke-width="0.5"/>
<line x1="329" y1="319" x2="329" y2="296" stroke="blue" stroke-width="0.5"/>
<line x1="329" y1="296" x2="340" y2="296" stroke="blue" stroke-width="0.5"/>
<line x1="340" y1="296" x2="340" y2="277" stroke="blue" stroke-width="0.5"/>
<line x1="340" y1="277" x2="356" y2="277" stroke="blue" stroke-width="0.5"/>
<line x1="356" y1="277" x2="356" y2="263" stroke="blue" stroke-width="0.5"/>
<line x1="356" y1="263" x2="376" y2="263" stroke="blue" stroke-width="0.5"/>
<line x1="376" y1="263" x2="376" y2="247" stroke="blue" stroke-width="0.5"/>
<line x1="376" y1="247" x2="395" y2="247" stroke="blue" stroke-width="0.5"/>
<line x1="395" y1="247" x2="395" y2="245" stroke="blue" stroke-width="0.5"/>
<line x1="395" y1="245" x2="424" y2="245" stroke="blue" stroke-width="0.5"/>
<line x1="424" y1="245" x2="424" y2="219" stroke="blue" stroke-width="0.5"/>
<line x1="424" y1="219" x2="435" y2="219" stroke="blue" stroke-width="0.5"/>
<line x1="435" y1="219" x2="435" y2="216" stroke="blue" stroke-width="0.5"/>
<line x1="435" y1="216" x2="463" y2="216" stroke="blue" stroke-width="0.5"/>
<line x1="463" y1="216" x2="463" y2="188" stroke="blue" stroke-width="0.5"/>
<line x1="463" y1="188" x2="474" y2="188" stroke="blue" stroke-width="0.5"/>
<line x1="474" y1="188" x2="474" y2="174" stroke="blue" stroke-width="0.5"/>
<line x1="474" y1="174" x2="494" y2="174" stroke="blue" stroke-width="0.5"/>
<line x1="494" y1="174" x2="494" y2="173" stroke="blue" stroke-width="0.5"/>
<line x1="494" y1="173" x2="522" y2="173" stroke="blue" stroke-width="0.5"/>
<line x1="522" y1="173" x2="522" y2="158" stroke="blue" stroke-width="0.5"/>
<line x1="522" y1="158" x2="541" y2="158" stroke="blue" stroke-width="0.5"/>
<line x1="541" y1="158" x2="541" y2="147" stroke="blue" stroke-width="0.5"/>
<line x1="541" y1="147" x2="562" y2="147" stroke="blue" stroke-width="0.5"/>
<line x1="562" y1="147" x2="562" y2="141" stroke="blue" stroke-width="0.5"/>
<line x1="562" y1="141" x2="586" y2="141" stroke="blue" stroke-width="0.5"/>
<line x1="586" y1="141" x2="586" y2="131" stroke="blue" stroke-width="0.5"/>
<line x1="586" y1="131" x2="608" y2="131" stroke="blue" stroke-width="0.5"/>
<line x1="608" y1="131" x2="608" y2="110" stroke="blue" stroke-width="0.5"/>
<line x1="608" y1="110" x2="626" y2="110" stroke="blue" stroke-width="0.5"/>
<line x1="626" y1="110" x2="626" y2="108" stroke="blue" stroke-width="0.5"/>
<line x1="626" y1="108" x2="651" y2="108" stroke="blue" stroke-width="0.5"/>
<line x1="651" y1="108" x2="651" y2="105" stroke="blue" stroke-width="0.5"/>
<line x1="651" y1="105" x2="676" y2="105" stroke="blue" stroke-width="0.5"/>
<line x1="676" y1="105" x2="676" y2="93" stroke="blue" stroke-width="0.5"/>
<line x1="676" y1="93" x2="698" y2="93" stroke="blue" stroke-width="0.5"/>
<line x1="698" y1="93" x2="698" y2="92" stroke="blue" stroke-width="0.5"/>
<line x1="698" y1="92" x2="723" y2="92" stroke="blue" stroke-width="0.5"/>
<line x1="723" y1="92" x2="723" y2="72" stroke="blue" stroke-width="0.5"/>
<line x1="723" y1="72" x2="742" y2="72" stroke="blue" stroke-width="0.5"/>
<line x1="742" y1="72" x2="742" y2="65" stroke="blue" stroke-width="0.5"/>
<line x1="742" y1="65" x2="765" y2="65" stroke="blue" stroke-width="0.5"/>
<line x1="765" y1="65" x2="765" y2="72" stroke="blue" stroke-width="0.5"/>
<line x1="765" y1="72" x2="792" y2="72" stroke="blue" stroke-width="0.5"/>
<line x1="792" y1="72" x2="792" y2="50" stroke="blue" stroke-width="0.5"/>
<line x1="792" y1="50" x2="812" y2="50" stroke="blue" stroke-width="0.5"/>
<line x1="812" y1="50" x2="812" y2="62" stroke="blue" stroke-width="0.5"/>
<line x1="812" y1="62" x2="839" y2="62" stroke="blue" stroke-width="0.5"/>
<line x1="839" y1="62" x2="839" y2="43" stroke="blue" stroke-width="0.5"/>
<line x1="839" y1="43" x2="861" y2="43" stroke="blue" stroke-width="0.5"/>
<line x1="861" y1="43" x2="861" y2="50" stroke="blue" stroke-width="0.5"/>
<line x1="861" y1="50" x2="886" y2="50" stroke="blue" stroke-width="0.5"/>
<line x1="886" y1="50" x2="886" y2="48" stroke="blue" stroke-width="0.5"/>
<line x1="886" y1="48" x2="911" y2="48" stroke="blue" stroke-width="0.5"/>
<line x1="911" y1="48" x2="911" y2="52" stroke="blue" stroke-width="0.5"/>
<line x1="911" y1="52" x2="935" y2="52" stroke="blue" stroke-width="0.5"/>
<line x1="935" y1="52" x2="935" y2="46" stroke="blue" stroke-width="0.5"/>
<line x1="935" y1="46" x2="959" y2="46" stroke="blue" stroke-width="0.5"/>
<line x1="959" y1="46" x2="959" y2="46" stroke="blue" stroke-width="0.5"/>
<line x1="959" y1="46" x2="983" y2="46" stroke="blue" stroke-width="0.5"/>
<line x1="983" y1="46" x2="983" y2="39" stroke="blue" stroke-width="0.5"/>
<line x1="983" y1="39" x2="1007" y2="39" stroke="blue" stroke-width="0.5"/>
<line x1="1007" y1="39" x2="1007" y2="35" stroke="blue" stroke-width="0.5"/>
<line x1="1007" y1="35" x2="1032" y2="35" stroke="blue" stroke-width="0.5"/>
<line x1="1032" y1="35" x2="1032" y2="40" stroke="blue" stroke-width="0.5"/>
<line x1="1032" y1="40" x2="1056" y2="40" stroke="blue" stroke-width="0.5"/>
<line x1="1056" y1="40" x2="1056" y2="50" stroke="blue" stroke-width="0.5"/>
<line x1="1056" y1="50" x2="1080" y2="50" stroke="blue" stroke-width="0.5"/>
<line x1="1080" y1="50" x2="1080" y2="53" stroke="blue" stroke-width="0.5"/>
<line x1="1080" y1="53" x2="1104" y2="53" stroke="blue" stroke-width="0.5"/>
<line x1="1104" y1="53" x2="1104" y2="50" stroke="blue" stroke-width="0.5"/>
<line x1="1104" y1="50" x2="1128" y2="50" stroke="blue" stroke-width="0.5"/>
<line x1="1128" y1="50" x2="1128" y2="55" stroke="blue" stroke-width="0.5"/>
<line x1="1128" y1="55" x2="1152" y2="55" stroke="blue" stroke-width="0.5"/>
<line x1="1152" y1="55" x2="1152" y2="57" stroke="blue" stroke-width="0.5"/>
<line x1="1152" y1="57" x2="1177" y2="57" stroke="blue" stroke-width="0.5"/>
<line x1="1177" y1="57" x2="1177" y2="64" stroke="blue" stroke-width="0.5"/>
<line x1="1177" y1="64" x2="1200" y2="64" stroke="blue" stroke-width="0.5"/>
<line x1="1200" y1="64" x2="1200" y2="68" stroke="blue" stroke-width="0.5"/>
<line x1="1200" y1="68" x2="1224" y2="68" stroke="blue" stroke-width="0.5"/>
<line x1="1224" y1="68" x2="1224" y2="72" stroke="blue" stroke-width="0.5"/>
<line x1="1224" y1="72" x2="1248" y2="72" stroke="blue" stroke-width="0.5"/>
<line x1="1248" y1="72" x2="1248" y2="85" stroke="blue" stroke-width="0.5"/>
<line x1="1248" y1="85" x2="1269" y2="85" stroke="blue" stroke-width="0.5"/>
<line x1="1269" y1="85" x2="1269" y2="93" stroke="blue" stroke-width="0.5"/>
<line x1="1269" y1="93" x2="1292" y2="93" stroke="blue" stroke-width="0.5"/>
<line x1="1292" y1="93" x2="1292" y2="98" stroke="blue" stroke-width="0.5"/>
<line x1="1292" y1="98" x2="1316" y2="98" stroke="blue" stroke-width="0.5"/>
<line x1="1316" y1="98" x2="1316" y2="95" stroke="blue" stroke-width="0.5"/>
<line x1="1316" y1="95" x2="1343" y2="95" stroke="blue" stroke-width="0.5"/>
<line x1="1343" y1="95" x2="1343" y2="103" stroke="blue" stroke-width="0.5"/>
<line x1="1343" y1="103" x2="1366" y2="103" stroke="blue" stroke-width="0.5"/>
<line x1="1366" y1="103" x2="1366" y2="117" stroke="blue" stroke-width="0.5"/>
<line x1="1366" y1="117" x2="1387" y2="117" stroke="blue" stroke-width="0.5"/>
<line x1="1387" y1="117" x2="1387" y2="129" stroke="blue" stroke-width="0.5"/>
<line x1="1387" y1="129" x2="1409" y2="129" stroke="blue" stroke-width="0.5"/>
<line x1="1409" y1="129" x2="1409" y2="139" stroke="blue" stroke-width="0.5"/>
<line x1="1409" y1="139" x2="1431" y2="139" stroke="blue" stroke-width="0.5"/>
<line x1="1431" y1="139" x2="1431" y2="158" stroke="blue" stroke-width="0.5"/>
<line x1="1431" y1="158" x2="1448" y2="158" stroke="blue" stroke-width="0.5"/>
<line x1="1448" y1="158" x2="1448" y2="170" stroke="blue" stroke-width="0.5"/>
<line x1="1448" y1="170" x2="1469" y2="170" stroke="blue" stroke-width="0.5"/>
<line x1="1469" y1="170" x2="1469" y2="180" stroke="blue" stroke-width="0.5"/>
<line x1="1469" y1="180" x2="1491" y2="180" stroke="blue" stroke-width="0.5"/>
<line x1="1491" y1="180" x2="1491" y2="182" stroke="blue" stroke-width="0.5"/>
<line x1="1491" y1="182" x2="1519" y2="182" stroke="blue" stroke-width="0.5"/>
<line x1="1519" y1="182" x2="1519" y2="211" stroke="blue" stroke-width="0.5"/>
<line x1="1519" y1="211" x2="1529" y2="211" stroke="blue" stroke-width="0.5"/>
<line x1="1529" y1="211" x2="1529" y2="224" stroke="blue" stroke-width="0.5"/>
<line x1="1529" y1="224" x2="1549" y2="224" stroke="blue" stroke-width="0.5"/>
<line x1="1549" y1="224" x2="1549" y2="228" stroke="blue" stroke-width="0.5"/>
<line x1="1549" y1="228" x2="1576" y2="228" stroke="blue" stroke-width="0.5"/>
<line x1="1576" y1="228" x2="1576" y2="240" stroke="blue" stroke-width="0.5"/>
<line x1="1576" y1="240" x2="1598" y2="240" stroke="blue" stroke-width="0.5"/>
<line x1="1598" y1="240" x2="1598" y2="267" stroke="blue" stroke-width="0.5"/>
<line x1="1598" y1="267" x2="1607" y2="267" stroke="blue" stroke-width="0.5"/>
<line x1="1607" y1="267" x2="1607" y2="271" stroke="blue" stroke-width="0.5"/>
<line x1="1607" y1="271" x2="1636" y2="271" stroke="blue" stroke-width="0.5"/>
<line x1="1636" y1="271" x2="1636" y2="300" stroke="blue" stroke-width="0.5"/>
<line x1="1636" y1="300" x2="1643" y2="300" stroke="blue" stroke-width="0.5"/>
<line x1="1643" y1="300" x2="1643" y2="305" stroke="blue" stroke-width="0.5"/>
<line x1="1643" y1="305" x2="1671" y2="305" stroke="blue" stroke-width="0.5"/>
<line x1="1671" y1="305" x2="1671" y2="320" stroke="blue" stroke-width="0.5"/>
<line x1="1671" y1="320" x2="1690" y2="320" stroke="blue" stroke-width="0.5"/>
<line x1="1690" y1="320" x2="1690" y2="339" stroke="blue" stroke-width="0.5"/>
<line x1="1690" y1="339" x2="1706" y2="339" stroke="blue" stroke-width="0.5"/>
<line x1="1706" y1="339" x2="1706" y2="356" stroke="blue" stroke-width="0.5"/>
<line x1="1706" y1="356" x2="1724" y2="356" stroke="blue" stroke-width="0.5"/>
<line x1="1724" y1="356" x2="1724" y2="377" stroke="blue" stroke-width="0.5"/>
<line x1="1724" y1="377" x2="1738" y2="377" stroke="blue" stroke-width="0.5"/>
<line x1="1738" y1="377" x2="1738" y2="393" stroke="blue" stroke-width="0.5"/>
<line x1="1738" y1="393" x2="1756" y2="393" stroke="blue" stroke-width="0.5"/>
<line x1="1756" y1="393" x2="1756" y2="415" stroke="blue" stroke-width="0.5"/>
<line x1="1756" y1="415" x2="1769" y2="415" stroke="blue" stroke-width="0.5"/>
<line x1="1769" y1="415" x2="1769" y2="440" stroke="blue" stroke-width="0.5"/>
<line x1="1769" y1="440" x2="1775" y2="440" stroke="blue" stroke-width="0.5"/>
<line x1="1775" y1="440" x2="1775" y2="463" stroke="blue" stroke-width="0.5"/>
<line x1="1775" y1="463" x2="1785" y2="463" stroke="blue" stroke-width="0.5"/>
<line x1="1785" y1="463" x2="1785" y2="482" stroke="blue" stroke-width="0.5"/>
<line x1="1785" y1="482" x2="1800" y2="482" stroke="blue" stroke-width="0.5"/>
<line x1="1800" y1="482" x2="1800" y2="502" stroke="blue" stroke-width="0.5"/>
<line x1="1800" y1="502" x2="1814" y2="502" stroke="blue" stroke-width="0.5"/>
<line x1="1814" y1="502" x2="1814" y2="517" stroke="blue" stroke-width="0.5"/>
<line x1="1814" y1="517" x2="1836" y2="517" stroke="blue" stroke-width="0.5"/>
<line x1="1836" y1="517" x2="1836" y2="538" stroke="blue" stroke-width="0.5"/>
<line x1="1836" y1="538" x2="1847" y2="538" stroke="blue" stroke-width="0.5"/>
<line x1="1847" y1="538" x2="1847" y2="565" stroke="blue" stroke-width="0.5"/>
<line x1="1847" y1="565" x2="1849" y2="565" stroke="blue" stroke-width="0.5"/>
<line x1="1849" y1="565" x2="1849" y2="584" stroke="blue" stroke-width="0.5"/>
<line x1="1849" y1="584" x2="1864" y2="584" stroke="blue" stroke-width="0.5"/>
<line x1="1864" y1="584" x2="1864" y2="605" stroke="blue" stroke-width="0.5"/>
<line x1="1864" y1="605" x2="1878" y2="605" stroke="blue" stroke-width="0.5"/>
<line x1="1878" y1="605" x2="1878" y2="625" stroke="blue" stroke-width="0.5"/>
<line x1="1878" y1="625" x2="1894" y2="625" stroke="blue" stroke-width="0.5"/>
<line x1="1894" y1="625" x2="1894" y2="654" stroke="blue" stroke-width="0.5"/>
<line x1="1894" y1="654" x2="1887" y2="654" stroke="blue" stroke-width="0.5"/>
<line x1="1887" y1="654" x2="1887" y2="671" stroke="blue" stroke-width="0.5"/>
<line x1="1887" y1="671" x2="1910" y2="671" stroke="blue" stroke-width="0.5"/>
<line x1="1910" y1="671" x2="1910" y2="697" stroke="blue" stroke-width="0.5"/>
<line x1="1910" y1="697" x2="1908" y2="697" stroke="blue" stroke-width="0.5"/>
<line x1="1908" y1="697" x2="1908" y2="717" stroke="blue" stroke-width="0.5"/>
<line x1="1908" y1="717" x2="1926" y2="717" stroke="blue" stroke-width="0.5"/>
<line x1="1926" y1="717" x2="1926" y2="742" stroke="blue" stroke-width="0.5"/>
<line x1="1926" y1="742" x2="1929" y2="742" stroke="blue" stroke-width="0.5"/>
<line x1="1929" y1="742" x2="1929" y2="765" stroke="blue" stroke-width="0.5"/>
<line x1="1929" y1="765" x2="1937" y2="765" stroke="blue" stroke-width="0.5"/>
<line x1="1937" y1="765" x2="1937" y2="792" stroke="blue" stroke-width="0.5"/>
<line x1="1937" y1="792" x2="1931" y2="792" stroke="blue" stroke-width="0.5"/>
<line x1="1931" y1="792" x2="1931" y2="814" stroke="blue" stroke-width="0.5"/>
<line x1="1931" y1="814" x2="1940" y2="814" stroke="blue" stroke-width="0.5"/>
<line x1="1940" y1="814" x2="1940" y2="839" stroke="blue" stroke-width="0.5"/>
<line x1="1940" y1="839" x2="1938" y2="839" stroke="blue" stroke-width="0.5"/>
<line x1="1938" y1="839" x2="1938" y2="863" stroke="blue" stroke-width="0.5"/>
<line x1="1938" y1="863" x2="1941" y2="863" stroke="blue" stroke-width="0.5"/>
<line x1="1941" y1="863" x2="1941" y2="887" stroke="blue" stroke-width="0.5"/>
<line x1="1941" y1="887" x2="1949" y2="887" stroke="blue" stroke-width="0.5"/>
<line x1="1949" y1="887" x2="1949" y2="911" stroke="blue" stroke-width="0.5"/>
<line x1="1949" y1="911" x2="1950" y2="911" stroke="blue" stroke-width="0.5"/>
<line x1="1950" y1="911" x2="1950" y2="934" stroke="blue" stroke-width="0.5"/>
<line x1="1950" y1="934" x2="1964" y2="934" stroke="blue" stroke-width="0.5"/>
<line x1="1964" y1="934" x2="1964" y2="959" stroke="blue" stroke-width="0.5"/>
<line x1="1964" y1="959" x2="1952" y2="959" stroke="blue" stroke-width="0.5"/>
<line x1="1952" y1="959" x2="1952" y2="983" stroke="blue" stroke-width="0.5"/>
<line x1="1952" y1="983" x2="1954" y2="983" stroke="blue" stroke-width="0.5"/>
<line x1="1954" y1="983" x2="1954" y2="1007" stroke="blue" stroke-width="0.5"/>
<line x1="1954" y1="1007" x2="1967" y2="1007" stroke="blue" stroke-width="0.5"/>
<rect x="340" y="277" width="1390" height="1370" fill="none" stroke="red" stroke-width="0.5"/>
<rect x="110" y="1007" width="1784" height="342" fill="none" stroke="green" stroke-width="0.5"/>
</svg>
